<?xml version="1.0" encoding="UTF-8" standalone="no"?>
<svg
   width="22"
   height="22"
   version="1.1"
   id="svg9"
   sodipodi:docname="purchasing.svg"
   inkscape:version="1.1.2 (0a00cf5339, 2022-02-04)"
   xmlns:inkscape="http://www.inkscape.org/namespaces/inkscape"
   xmlns:sodipodi="http://sodipodi.sourceforge.net/DTD/sodipodi-0.dtd"
   xmlns:xlink="http://www.w3.org/1999/xlink"
   xmlns="http://www.w3.org/2000/svg"
   xmlns:svg="http://www.w3.org/2000/svg">
  <sodipodi:namedview
     id="namedview11"
     pagecolor="#ffffff"
     bordercolor="#666666"
     borderopacity="1.0"
     inkscape:pageshadow="2"
     inkscape:pageopacity="0.0"
     inkscape:pagecheckerboard="0"
     showgrid="false"
     inkscape:zoom="32"
     inkscape:cx="9.671875"
     inkscape:cy="11.484375"
     inkscape:window-width="1920"
     inkscape:window-height="1009"
     inkscape:window-x="0"
     inkscape:window-y="34"
     inkscape:window-maximized="1"
     inkscape:current-layer="svg9" />
  <defs
     id="defs3">
    <linearGradient
       inkscape:collect="always"
       id="linearGradient59461">
      <stop
         style="stop-color:#ffffff;stop-opacity:1;"
         offset="0"
         id="stop59457" />
      <stop
         style="stop-color:#ffffff;stop-opacity:0;"
         offset="1"
         id="stop59459" />
    </linearGradient>
    <linearGradient
       inkscape:collect="always"
       id="linearGradient38345">
      <stop
         style="stop-color:#ffffff;stop-opacity:1;"
         offset="0"
         id="stop38341" />
      <stop
         style="stop-color:#ffffff;stop-opacity:0;"
         offset="1"
         id="stop38343" />
    </linearGradient>
    <linearGradient
       inkscape:collect="always"
       id="linearGradient29426">
      <stop
         style="stop-color:#ffffff;stop-opacity:1;"
         offset="0"
         id="stop29422" />
      <stop
         style="stop-color:#ffffff;stop-opacity:0.03511856"
         offset="1"
         id="stop29424" />
    </linearGradient>
    <style
       id="current-color-scheme"
       type="text/css">
   .ColorScheme-Text { color:#ffffff; } .ColorScheme-Highlight { color:#4285f4; } .ColorScheme-NeutralText { color:#ff9800; } .ColorScheme-PositiveText { color:#4caf50; } .ColorScheme-NegativeText { color:#f44336; }
  </style>
    <radialGradient
       inkscape:collect="always"
       xlink:href="#linearGradient29426"
       id="radialGradient29434"
       cx="12.187432"
       cy="10.313006"
       fx="12.187432"
       fy="10.313006"
       r="9.407012"
       gradientTransform="matrix(0.62392209,0.43202165,-0.36392244,0.52557379,8.3365583,-0.3724742)"
       gradientUnits="userSpaceOnUse" />
    <radialGradient
       inkscape:collect="always"
       xlink:href="#linearGradient38345"
       id="radialGradient38347"
       cx="16.002008"
       cy="2.8258798"
       fx="16.002008"
       fy="2.8258798"
       r="8"
       gradientTransform="matrix(1.417614,-0.06798604,0.02510042,0.52338237,-6.6781181,1.8525733)"
       gradientUnits="userSpaceOnUse" />
    <radialGradient
       inkscape:collect="always"
       xlink:href="#linearGradient59461"
       id="radialGradient59463"
       cx="10.999999"
       cy="19.047335"
       fx="10.999999"
       fy="19.047335"
       r="8.5906211"
       gradientTransform="matrix(1.4278134,0.00862712,-5.4566225e-4,0.09030761,-4.695554,17.232315)"
       gradientUnits="userSpaceOnUse" />
    <radialGradient
       inkscape:collect="always"
       xlink:href="#linearGradient59461"
       id="radialGradient59822"
       gradientUnits="userSpaceOnUse"
       gradientTransform="matrix(1.4278134,0.00862712,-5.4566225e-4,0.09030761,-4.695554,17.232315)"
       cx="10.999999"
       cy="19.047335"
       fx="10.999999"
       fy="19.047335"
       r="8.5906211" />
    <radialGradient
       inkscape:collect="always"
       xlink:href="#linearGradient59461"
       id="radialGradient59824"
       gradientUnits="userSpaceOnUse"
       gradientTransform="matrix(1.4278134,0.00862712,-5.4566225e-4,0.09030761,-4.695554,17.232315)"
       cx="10.999999"
       cy="19.047335"
       fx="10.999999"
       fy="19.047335"
       r="8.5906211" />
    <radialGradient
       inkscape:collect="always"
       xlink:href="#linearGradient59461"
       id="radialGradient59826"
       gradientUnits="userSpaceOnUse"
       gradientTransform="matrix(1.4278134,0.00862712,-5.4566225e-4,0.09030761,-4.695554,17.232315)"
       cx="10.999999"
       cy="19.047335"
       fx="10.999999"
       fy="19.047335"
       r="8.5906211" />
    <radialGradient
       inkscape:collect="always"
       xlink:href="#linearGradient59461"
       id="radialGradient59828"
       gradientUnits="userSpaceOnUse"
       gradientTransform="matrix(1.4278134,0.00862712,-5.4566225e-4,0.09030761,-4.695554,17.232315)"
       cx="10.999999"
       cy="19.047335"
       fx="10.999999"
       fy="19.047335"
       r="8.5906211" />
    <radialGradient
       inkscape:collect="always"
       xlink:href="#linearGradient59461"
       id="radialGradient59830"
       gradientUnits="userSpaceOnUse"
       gradientTransform="matrix(1.4278134,0.00862712,-5.4566225e-4,0.09030761,-4.695554,17.232315)"
       cx="10.999999"
       cy="19.047335"
       fx="10.999999"
       fy="19.047335"
       r="8.5906211" />
    <radialGradient
       inkscape:collect="always"
       xlink:href="#linearGradient59461"
       id="radialGradient59832"
       gradientUnits="userSpaceOnUse"
       gradientTransform="matrix(1.4278134,0.00862712,-5.4566225e-4,0.09030761,-4.695554,17.232315)"
       cx="10.999999"
       cy="19.047335"
       fx="10.999999"
       fy="19.047335"
       r="8.5906211" />
    <radialGradient
       inkscape:collect="always"
       xlink:href="#linearGradient59461"
       id="radialGradient59834"
       gradientUnits="userSpaceOnUse"
       gradientTransform="matrix(1.4278134,0.00862712,-5.4566225e-4,0.09030761,-4.695554,17.232315)"
       cx="10.999999"
       cy="19.047335"
       fx="10.999999"
       fy="19.047335"
       r="8.5906211" />
    <radialGradient
       inkscape:collect="always"
       xlink:href="#linearGradient59461"
       id="radialGradient59836"
       gradientUnits="userSpaceOnUse"
       gradientTransform="matrix(1.4278134,0.00862712,-5.4566225e-4,0.09030761,-4.695554,17.232315)"
       cx="10.999999"
       cy="19.047335"
       fx="10.999999"
       fy="19.047335"
       r="8.5906211" />
    <radialGradient
       inkscape:collect="always"
       xlink:href="#linearGradient59461"
       id="radialGradient59838"
       gradientUnits="userSpaceOnUse"
       gradientTransform="matrix(1.4278134,0.00862712,-5.4566225e-4,0.09030761,-4.695554,17.232315)"
       cx="10.999999"
       cy="19.047335"
       fx="10.999999"
       fy="19.047335"
       r="8.5906211" />
    <radialGradient
       inkscape:collect="always"
       xlink:href="#linearGradient59461"
       id="radialGradient59840"
       gradientUnits="userSpaceOnUse"
       gradientTransform="matrix(1.4278134,0.00862712,-5.4566225e-4,0.09030761,-4.695554,17.232315)"
       cx="10.999999"
       cy="19.047335"
       fx="10.999999"
       fy="19.047335"
       r="8.5906211" />
  </defs>
  <g
     id="g59900">
    <g
       id="g38784"
       transform="matrix(1.0701497,0,0,1.0701497,-1.8438419,-0.76643363)">
      <rect
         style="fill:#666666;stroke-width:0.744425"
         id="rect35"
         width="16"
         height="12"
         x="7.8937693"
         y="-4.3802137"
         ry="1.5241139"
         transform="rotate(34.53458)" />
      <rect
         style="fill:url(#radialGradient38347);fill-opacity:1;stroke-width:0.744425"
         id="rect38295"
         width="16"
         height="12"
         x="7.8937693"
         y="-4.3802137"
         ry="1.5241139"
         transform="rotate(34.53458)" />
      <path
         style="fill:#672178"
         class="ColorScheme-Text"
         d="M 10.234256,1.6854272 C 9.5496917,1.2143304 8.6193216,1.3861835 8.1482248,2.0707482 L 7.8647731,2.4826403 21.04532,11.553097 21.328772,11.141205 C 21.799869,10.45664 21.628016,9.5262698 20.943451,9.055173 Z M 6.1640625,4.9539929 3.0460931,9.4848059 C 2.5749963,10.169371 2.7468495,11.099741 3.4314141,11.570837 l 10.7091949,7.369746 c 0.684564,0.471097 1.614934,0.299244 2.086031,-0.385321 l 3.11797,-4.530813 z m 9.1634955,8.7338621 a 1.5,1.5 0 0 1 0.385321,2.086032 1.5,1.5 0 0 1 -2.086032,0.385321 1.5,1.5 0 0 1 -0.385321,-2.086032 1.5,1.5 0 0 1 2.086032,-0.385321 z M 5.2871361,7.992249 12.701194,13.094381 12.13429,13.918165 4.7202326,8.8160332 Z"
         id="path5" />
      <rect
         style="opacity:0.35;fill:currentColor"
         class="ColorScheme-Text"
         width="16"
         height="3"
         x="7.8862934"
         y="-2.4134078"
         id="rect7"
         transform="rotate(34.53458)" />
      <path
         style="opacity:0.42326;mix-blend-mode:luminosity;fill:url(#radialGradient29434);fill-opacity:1"
         class="ColorScheme-Text"
         d="M 10.234256,1.6854277 C 9.5496918,1.2143308 8.6193208,1.386184 8.1482248,2.0707487 L 7.8647728,2.4826408 21.04532,11.553097 21.328771,11.141205 C 21.799868,10.456641 21.628015,9.5262703 20.94345,9.0551734 Z M 6.1640621,4.9539933 3.0460927,9.4848064 C 2.5749959,10.169371 2.746849,11.099741 3.4314137,11.570838 l 10.7091943,7.369746 c 0.684565,0.471096 1.614935,0.299243 2.086032,-0.385321 l 3.117969,-4.530814 z m 9.1634949,8.7338627 a 1.5,1.5 0 0 1 0.385321,2.086031 1.5,1.5 0 0 1 -2.086031,0.385321 1.5,1.5 0 0 1 -0.385321,-2.086031 1.5,1.5 0 0 1 2.086031,-0.385321 z M 5.2871357,7.9922494 12.701194,13.094381 12.13429,13.918165 4.7202322,8.8160336 Z"
         id="path28384" />
    </g>
    <g
       id="g59789"
       transform="matrix(1.0701497,0,0,1.0701497,-0.77164547,-0.76643363)">
      <g
         aria-label="Purchasing"
         id="text4462"
         style="font-size:3.53816px;line-height:1.25;fill:#999999;stroke-width:0.663406">
        <path
           d="m 2.9825597,17.764755 q 0.1945988,0 0.3396633,0.04953 0.1486028,0.04953 0.2441331,0.141526 0.099069,0.08845 0.1450646,0.21229 0.049534,0.123836 0.049534,0.275976 0,0.343202 -0.2016751,0.530724 -0.201675,0.183989 -0.6050252,0.183989 H 2.6995069 v 0.817315 H 2.4093777 v -2.158278 q 0.063687,-0.01415 0.1379883,-0.02477 0.07784,-0.01062 0.1521409,-0.01769 0.07784,-0.0071 0.1486027,-0.0071 0.074301,-0.0035 0.1344501,-0.0035 z m 0.021229,0.251209 q -0.091992,0 -0.176908,0.0035 -0.084916,0 -0.1273737,0.0071 v 0.88454 h 0.2405949 q 0.265362,0 0.3927357,-0.106145 0.1309119,-0.106145 0.1309119,-0.350278 0,-0.438732 -0.4599608,-0.438732 z"
           style="font-family:'Ubuntu Mono';-inkscape-font-specification:'Ubuntu Mono'"
           id="path59360" />
        <path
           d="m 5.438036,19.930109 q -0.09553,0.02477 -0.2547475,0.05307 -0.1556791,0.02831 -0.3679687,0.02831 -0.1875225,0 -0.3113581,-0.05307 -0.1238356,-0.05661 -0.2016751,-0.155679 -0.07784,-0.102607 -0.109683,-0.240595 -0.031843,-0.137988 -0.031843,-0.304282 v -0.92346 h 0.2901291 v 0.859773 q 0,0.304282 0.088454,0.431656 0.091992,0.127374 0.3042818,0.127374 0.045996,0 0.091992,-0.0035 0.049534,-0.0035 0.091992,-0.0071 0.042458,-0.0071 0.074301,-0.01061 0.031843,-0.0071 0.042458,-0.01061 V 18.334398 H 5.438036 Z"
           style="font-family:'Ubuntu Mono';-inkscape-font-specification:'Ubuntu Mono'"
           id="path59362" />
        <path
           d="m 6.0678217,19.976105 v -1.553253 q 0.3608923,-0.123835 0.728861,-0.123835 0.1132211,0 0.2158277,0.01061 0.1026067,0.0071 0.2264423,0.03538 l -0.053072,0.258286 q -0.1132212,-0.03184 -0.2016752,-0.03892 -0.084916,-0.01061 -0.1875224,-0.01061 -0.2158278,0 -0.4387319,0.06015 v 1.362192 z"
           style="font-family:'Ubuntu Mono';-inkscape-font-specification:'Ubuntu Mono'"
           id="path59364" />
        <path
           d="m 7.6316814,19.15879 q 0,-0.222904 0.070763,-0.38566 0.070763,-0.162755 0.1945988,-0.2689 0.1238356,-0.106145 0.286591,-0.155679 0.1662935,-0.05307 0.353816,-0.05307 0.1202974,0 0.2370567,0.01769 0.1202975,0.01415 0.2547475,0.05661 l -0.067225,0.251209 q -0.1167593,-0.04246 -0.2158278,-0.05307 -0.09553,-0.01415 -0.1945988,-0.01415 -0.1273737,0 -0.2405949,0.03538 -0.1132211,0.03184 -0.1981369,0.106145 -0.081378,0.07076 -0.1309119,0.187522 -0.049534,0.113221 -0.049534,0.275977 0,0.155679 0.045996,0.2689 0.045996,0.109683 0.1273738,0.183984 0.084916,0.07076 0.2016751,0.106145 0.1167593,0.03538 0.2582857,0.03538 0.1132211,0 0.2158277,-0.01062 0.1061448,-0.01415 0.2299804,-0.05661 l 0.042458,0.244133 q -0.1238356,0.046 -0.2512094,0.06369 -0.1273738,0.02123 -0.2759765,0.02123 -0.198137,0 -0.3644305,-0.05307 Q 7.9996501,19.905342 7.8793526,19.799197 7.7625933,19.693052 7.6953683,19.533835 7.6316814,19.371079 7.6316814,19.15879 Z"
           style="font-family:'Ubuntu Mono';-inkscape-font-specification:'Ubuntu Mono'"
           id="path59366" />
        <path
           d="m 9.4785944,19.976105 v -2.402411 l 0.2936673,-0.04953 v 0.835006 q 0.070763,-0.02831 0.1592172,-0.04246 0.088454,-0.01769 0.1733701,-0.01769 0.187522,0 0.311358,0.05661 0.127374,0.05307 0.201675,0.152141 0.0743,0.09907 0.106145,0.237057 0.03184,0.137988 0.03184,0.304282 v 0.926998 h -0.290129 v -0.863311 q 0,-0.304282 -0.08492,-0.428118 -0.08492,-0.127373 -0.304282,-0.127373 -0.091992,0 -0.1804457,0.02123 -0.084916,0.01769 -0.1238356,0.03538 v 1.362192 z"
           style="font-family:'Ubuntu Mono';-inkscape-font-specification:'Ubuntu Mono'"
           id="path59368" />
        <path
           d="m 11.898689,19.767353 q 0.109683,0 0.194599,-0.0071 0.08845,-0.0071 0.145065,-0.01769 V 19.25432 q -0.05661,-0.01769 -0.137989,-0.0283 -0.07784,-0.01062 -0.166293,-0.01062 -0.08138,0 -0.159217,0.01415 -0.07784,0.01061 -0.137988,0.04246 -0.06015,0.03184 -0.09907,0.08492 -0.03892,0.04953 -0.03892,0.127373 0,0.159218 0.106145,0.222905 0.109683,0.06015 0.293667,0.06015 z m -0.0283,-1.471874 q 0.183984,0 0.30782,0.046 0.127374,0.046 0.205213,0.127374 0.07784,0.08138 0.109683,0.198137 0.03184,0.116759 0.03184,0.254747 v 1.026066 q -0.102607,0.01769 -0.272439,0.04246 -0.166293,0.02477 -0.343201,0.02477 -0.13445,0 -0.261824,-0.02477 -0.127374,-0.02123 -0.226442,-0.07784 -0.09907,-0.06015 -0.159217,-0.162756 -0.06015,-0.102606 -0.06015,-0.261823 0,-0.141527 0.06015,-0.237057 0.06369,-0.09907 0.159217,-0.159217 0.09907,-0.06015 0.222904,-0.08492 0.127374,-0.0283 0.254747,-0.0283 0.17337,0 0.339664,0.03892 v -0.08138 q 0,-0.0743 -0.01769,-0.141527 -0.01415,-0.07076 -0.06015,-0.127373 -0.04246,-0.05661 -0.120297,-0.08845 -0.0743,-0.03538 -0.194599,-0.03538 -0.152141,0 -0.265362,0.02123 -0.113221,0.02123 -0.17337,0.04246 l -0.03538,-0.240595 q 0.06015,-0.0283 0.198137,-0.04953 0.141527,-0.02123 0.300744,-0.02123 z"
           style="font-family:'Ubuntu Mono';-inkscape-font-specification:'Ubuntu Mono'"
           id="path59370" />
        <path
           d="m 14.007425,19.565678 q 0,-0.08845 -0.0743,-0.145064 -0.07076,-0.05661 -0.180446,-0.09907 -0.106145,-0.04246 -0.233519,-0.08138 -0.127374,-0.04246 -0.237057,-0.102606 -0.106144,-0.06015 -0.180446,-0.148603 -0.07076,-0.08845 -0.07076,-0.22998 0,-0.198137 0.159217,-0.329049 0.162756,-0.13445 0.505957,-0.13445 0.13445,0 0.275977,0.02123 0.145064,0.01769 0.247671,0.04953 l -0.05307,0.261824 q -0.0283,-0.01415 -0.07784,-0.02831 -0.04953,-0.01769 -0.113221,-0.0283 -0.06369,-0.01415 -0.137988,-0.02123 -0.07076,-0.0071 -0.137989,-0.0071 -0.382121,0 -0.382121,0.208751 0,0.0743 0.07076,0.127374 0.0743,0.04953 0.183985,0.09199 0.109683,0.04246 0.237056,0.08845 0.127374,0.04246 0.237057,0.106145 0.109683,0.06369 0.180446,0.155679 0.0743,0.08845 0.0743,0.226442 0,0.222904 -0.17337,0.34674 -0.17337,0.120297 -0.548415,0.120297 -0.169832,0 -0.311358,-0.0283 -0.141527,-0.0283 -0.2689,-0.08492 l 0.05661,-0.265362 q 0.123836,0.05661 0.258286,0.09553 0.137988,0.03538 0.293667,0.03538 0.399812,0 0.399812,-0.201675 z"
           style="font-family:'Ubuntu Mono';-inkscape-font-specification:'Ubuntu Mono'"
           id="path59372" />
        <path
           d="m 15.27408,18.079651 q -0.09199,0 -0.159217,-0.06369 -0.06723,-0.06369 -0.06723,-0.17337 0,-0.109683 0.06723,-0.17337 0.06723,-0.06369 0.159217,-0.06369 0.09553,0 0.159217,0.06369 0.06723,0.06369 0.06723,0.17337 0,0.109683 -0.06723,0.17337 -0.06369,0.06369 -0.159217,0.06369 z m -0.0743,0.498881 h -0.474114 v -0.244134 h 0.764243 v 1.008376 q 0,0.244133 0.06723,0.329049 0.06723,0.08138 0.201675,0.08138 0.102607,0 0.187522,-0.02477 0.08845,-0.02477 0.137989,-0.05307 l 0.04246,0.247671 q -0.02123,0.01062 -0.06015,0.02831 -0.03892,0.01415 -0.09199,0.0283 -0.04954,0.01415 -0.113221,0.02477 -0.06015,0.01061 -0.127374,0.01061 -0.155679,0 -0.258286,-0.04246 -0.102607,-0.04246 -0.166293,-0.127374 -0.06015,-0.08492 -0.08492,-0.208752 -0.02477,-0.127373 -0.02477,-0.293667 z"
           style="font-family:'Ubuntu Mono';-inkscape-font-specification:'Ubuntu Mono'"
           id="path59374" />
        <path
           d="m 16.554887,18.380395 q 0.159218,-0.03892 0.314897,-0.06015 0.159217,-0.02123 0.297205,-0.02123 0.329049,0 0.495343,0.169832 0.169831,0.169831 0.169831,0.544876 v 0.96238 h -0.290129 v -0.909307 q 0,-0.159218 -0.0283,-0.258286 -0.02831,-0.09907 -0.08138,-0.152141 -0.04953,-0.05661 -0.123835,-0.07784 -0.07076,-0.02123 -0.15568,-0.02123 -0.07076,0 -0.15214,0.01061 -0.07784,0.0071 -0.152141,0.02123 v 1.386959 H 16.55489 Z"
           style="font-family:'Ubuntu Mono';-inkscape-font-specification:'Ubuntu Mono'"
           id="path59376" />
        <path
           d="m 19.296955,19.823964 q -0.04953,0.0283 -0.152141,0.06015 -0.102607,0.03184 -0.237057,0.03184 -0.145064,0 -0.272438,-0.046 -0.123836,-0.04953 -0.219366,-0.145065 -0.09199,-0.09907 -0.148603,-0.247671 -0.05307,-0.152141 -0.05307,-0.357354 0,-0.180446 0.04953,-0.329049 0.05307,-0.152141 0.148603,-0.261824 0.09907,-0.109683 0.240595,-0.169831 0.141526,-0.06369 0.321972,-0.06369 0.21229,0 0.360893,0.03184 0.152141,0.0283 0.254747,0.05661 v 1.464798 q 0,0.382121 -0.194599,0.551953 -0.19106,0.169832 -0.580258,0.169832 -0.159217,0 -0.290129,-0.02477 -0.127374,-0.02477 -0.226442,-0.06015 l 0.05307,-0.258286 q 0.09199,0.03892 0.208752,0.06369 0.120297,0.02477 0.261823,0.02477 0.254748,0 0.364431,-0.102607 0.109683,-0.102606 0.109683,-0.332587 z m 0,-1.23128 q -0.04246,-0.01415 -0.116759,-0.02477 -0.0743,-0.01415 -0.201675,-0.01415 -0.226443,0 -0.34674,0.155679 -0.116759,0.155679 -0.116759,0.413965 0,0.141527 0.03184,0.244133 0.03538,0.09907 0.09199,0.166294 0.06015,0.06369 0.13445,0.09553 0.0743,0.0283 0.159217,0.0283 0.109683,0 0.205214,-0.03184 0.09907,-0.03184 0.159217,-0.0743 z"
           style="font-family:'Ubuntu Mono';-inkscape-font-specification:'Ubuntu Mono'"
           id="path59378" />
      </g>
      <g
         aria-label="Purchasing"
         id="g59419"
         style="font-size:3.53816px;line-height:1.25;fill:url(#radialGradient59463);fill-opacity:1;stroke-width:0.663406">
        <path
           d="m 2.9825597,17.764755 q 0.1945988,0 0.3396633,0.04953 0.1486028,0.04953 0.2441331,0.141526 0.099069,0.08845 0.1450646,0.21229 0.049534,0.123836 0.049534,0.275976 0,0.343202 -0.2016751,0.530724 -0.201675,0.183989 -0.6050252,0.183989 H 2.6995069 v 0.817315 H 2.4093777 v -2.158278 q 0.063687,-0.01415 0.1379883,-0.02477 0.07784,-0.01062 0.1521409,-0.01769 0.07784,-0.0071 0.1486027,-0.0071 0.074301,-0.0035 0.1344501,-0.0035 z m 0.021229,0.251209 q -0.091992,0 -0.176908,0.0035 -0.084916,0 -0.1273737,0.0071 v 0.88454 h 0.2405949 q 0.265362,0 0.3927357,-0.106145 0.1309119,-0.106145 0.1309119,-0.350278 0,-0.438732 -0.4599608,-0.438732 z"
           style="font-family:'Ubuntu Mono';-inkscape-font-specification:'Ubuntu Mono';fill:url(#radialGradient59822);fill-opacity:1"
           id="path59399" />
        <path
           d="m 5.438036,19.930109 q -0.09553,0.02477 -0.2547475,0.05307 -0.1556791,0.02831 -0.3679687,0.02831 -0.1875225,0 -0.3113581,-0.05307 -0.1238356,-0.05661 -0.2016751,-0.155679 -0.07784,-0.102607 -0.109683,-0.240595 -0.031843,-0.137988 -0.031843,-0.304282 v -0.92346 h 0.2901291 v 0.859773 q 0,0.304282 0.088454,0.431656 0.091992,0.127374 0.3042818,0.127374 0.045996,0 0.091992,-0.0035 0.049534,-0.0035 0.091992,-0.0071 0.042458,-0.0071 0.074301,-0.01061 0.031843,-0.0071 0.042458,-0.01061 V 18.334398 H 5.438036 Z"
           style="font-family:'Ubuntu Mono';-inkscape-font-specification:'Ubuntu Mono';fill:url(#radialGradient59824);fill-opacity:1"
           id="path59401" />
        <path
           d="m 6.0678217,19.976105 v -1.553253 q 0.3608923,-0.123835 0.728861,-0.123835 0.1132211,0 0.2158277,0.01061 0.1026067,0.0071 0.2264423,0.03538 l -0.053072,0.258286 q -0.1132212,-0.03184 -0.2016752,-0.03892 -0.084916,-0.01061 -0.1875224,-0.01061 -0.2158278,0 -0.4387319,0.06015 v 1.362192 z"
           style="font-family:'Ubuntu Mono';-inkscape-font-specification:'Ubuntu Mono';fill:url(#radialGradient59826);fill-opacity:1"
           id="path59403" />
        <path
           d="m 7.6316814,19.15879 q 0,-0.222904 0.070763,-0.38566 0.070763,-0.162755 0.1945988,-0.2689 0.1238356,-0.106145 0.286591,-0.155679 0.1662935,-0.05307 0.353816,-0.05307 0.1202974,0 0.2370567,0.01769 0.1202975,0.01415 0.2547475,0.05661 l -0.067225,0.251209 q -0.1167593,-0.04246 -0.2158278,-0.05307 -0.09553,-0.01415 -0.1945988,-0.01415 -0.1273737,0 -0.2405949,0.03538 -0.1132211,0.03184 -0.1981369,0.106145 -0.081378,0.07076 -0.1309119,0.187522 -0.049534,0.113221 -0.049534,0.275977 0,0.155679 0.045996,0.2689 0.045996,0.109683 0.1273738,0.183984 0.084916,0.07076 0.2016751,0.106145 0.1167593,0.03538 0.2582857,0.03538 0.1132211,0 0.2158277,-0.01062 0.1061448,-0.01415 0.2299804,-0.05661 l 0.042458,0.244133 q -0.1238356,0.046 -0.2512094,0.06369 -0.1273738,0.02123 -0.2759765,0.02123 -0.198137,0 -0.3644305,-0.05307 Q 7.9996501,19.905342 7.8793526,19.799197 7.7625933,19.693052 7.6953683,19.533835 7.6316814,19.371079 7.6316814,19.15879 Z"
           style="font-family:'Ubuntu Mono';-inkscape-font-specification:'Ubuntu Mono';fill:url(#radialGradient59828);fill-opacity:1"
           id="path59405" />
        <path
           d="m 9.4785944,19.976105 v -2.402411 l 0.2936673,-0.04953 v 0.835006 q 0.070763,-0.02831 0.1592172,-0.04246 0.088454,-0.01769 0.1733701,-0.01769 0.187522,0 0.311358,0.05661 0.127374,0.05307 0.201675,0.152141 0.0743,0.09907 0.106145,0.237057 0.03184,0.137988 0.03184,0.304282 v 0.926998 h -0.290129 v -0.863311 q 0,-0.304282 -0.08492,-0.428118 -0.08492,-0.127373 -0.304282,-0.127373 -0.091992,0 -0.1804457,0.02123 -0.084916,0.01769 -0.1238356,0.03538 v 1.362192 z"
           style="font-family:'Ubuntu Mono';-inkscape-font-specification:'Ubuntu Mono';fill:url(#radialGradient59830);fill-opacity:1"
           id="path59407" />
        <path
           d="m 11.898689,19.767353 q 0.109683,0 0.194599,-0.0071 0.08845,-0.0071 0.145065,-0.01769 V 19.25432 q -0.05661,-0.01769 -0.137989,-0.0283 -0.07784,-0.01062 -0.166293,-0.01062 -0.08138,0 -0.159217,0.01415 -0.07784,0.01061 -0.137988,0.04246 -0.06015,0.03184 -0.09907,0.08492 -0.03892,0.04953 -0.03892,0.127373 0,0.159218 0.106145,0.222905 0.109683,0.06015 0.293667,0.06015 z m -0.0283,-1.471874 q 0.183984,0 0.30782,0.046 0.127374,0.046 0.205213,0.127374 0.07784,0.08138 0.109683,0.198137 0.03184,0.116759 0.03184,0.254747 v 1.026066 q -0.102607,0.01769 -0.272439,0.04246 -0.166293,0.02477 -0.343201,0.02477 -0.13445,0 -0.261824,-0.02477 -0.127374,-0.02123 -0.226442,-0.07784 -0.09907,-0.06015 -0.159217,-0.162756 -0.06015,-0.102606 -0.06015,-0.261823 0,-0.141527 0.06015,-0.237057 0.06369,-0.09907 0.159217,-0.159217 0.09907,-0.06015 0.222904,-0.08492 0.127374,-0.0283 0.254747,-0.0283 0.17337,0 0.339664,0.03892 v -0.08138 q 0,-0.0743 -0.01769,-0.141527 -0.01415,-0.07076 -0.06015,-0.127373 -0.04246,-0.05661 -0.120297,-0.08845 -0.0743,-0.03538 -0.194599,-0.03538 -0.152141,0 -0.265362,0.02123 -0.113221,0.02123 -0.17337,0.04246 l -0.03538,-0.240595 q 0.06015,-0.0283 0.198137,-0.04953 0.141527,-0.02123 0.300744,-0.02123 z"
           style="font-family:'Ubuntu Mono';-inkscape-font-specification:'Ubuntu Mono';fill:url(#radialGradient59832);fill-opacity:1"
           id="path59409" />
        <path
           d="m 14.007425,19.565678 q 0,-0.08845 -0.0743,-0.145064 -0.07076,-0.05661 -0.180446,-0.09907 -0.106145,-0.04246 -0.233519,-0.08138 -0.127374,-0.04246 -0.237057,-0.102606 -0.106144,-0.06015 -0.180446,-0.148603 -0.07076,-0.08845 -0.07076,-0.22998 0,-0.198137 0.159217,-0.329049 0.162756,-0.13445 0.505957,-0.13445 0.13445,0 0.275977,0.02123 0.145064,0.01769 0.247671,0.04953 l -0.05307,0.261824 q -0.0283,-0.01415 -0.07784,-0.02831 -0.04953,-0.01769 -0.113221,-0.0283 -0.06369,-0.01415 -0.137988,-0.02123 -0.07076,-0.0071 -0.137989,-0.0071 -0.382121,0 -0.382121,0.208751 0,0.0743 0.07076,0.127374 0.0743,0.04953 0.183985,0.09199 0.109683,0.04246 0.237056,0.08845 0.127374,0.04246 0.237057,0.106145 0.109683,0.06369 0.180446,0.155679 0.0743,0.08845 0.0743,0.226442 0,0.222904 -0.17337,0.34674 -0.17337,0.120297 -0.548415,0.120297 -0.169832,0 -0.311358,-0.0283 -0.141527,-0.0283 -0.2689,-0.08492 l 0.05661,-0.265362 q 0.123836,0.05661 0.258286,0.09553 0.137988,0.03538 0.293667,0.03538 0.399812,0 0.399812,-0.201675 z"
           style="font-family:'Ubuntu Mono';-inkscape-font-specification:'Ubuntu Mono';fill:url(#radialGradient59834);fill-opacity:1"
           id="path59411" />
        <path
           d="m 15.27408,18.079651 q -0.09199,0 -0.159217,-0.06369 -0.06723,-0.06369 -0.06723,-0.17337 0,-0.109683 0.06723,-0.17337 0.06723,-0.06369 0.159217,-0.06369 0.09553,0 0.159217,0.06369 0.06723,0.06369 0.06723,0.17337 0,0.109683 -0.06723,0.17337 -0.06369,0.06369 -0.159217,0.06369 z m -0.0743,0.498881 h -0.474114 v -0.244134 h 0.764243 v 1.008376 q 0,0.244133 0.06723,0.329049 0.06723,0.08138 0.201675,0.08138 0.102607,0 0.187522,-0.02477 0.08845,-0.02477 0.137989,-0.05307 l 0.04246,0.247671 q -0.02123,0.01062 -0.06015,0.02831 -0.03892,0.01415 -0.09199,0.0283 -0.04954,0.01415 -0.113221,0.02477 -0.06015,0.01061 -0.127374,0.01061 -0.155679,0 -0.258286,-0.04246 -0.102607,-0.04246 -0.166293,-0.127374 -0.06015,-0.08492 -0.08492,-0.208752 -0.02477,-0.127373 -0.02477,-0.293667 z"
           style="font-family:'Ubuntu Mono';-inkscape-font-specification:'Ubuntu Mono';fill:url(#radialGradient59836);fill-opacity:1"
           id="path59413" />
        <path
           d="m 16.554887,18.380395 q 0.159218,-0.03892 0.314897,-0.06015 0.159217,-0.02123 0.297205,-0.02123 0.329049,0 0.495343,0.169832 0.169831,0.169831 0.169831,0.544876 v 0.96238 h -0.290129 v -0.909307 q 0,-0.159218 -0.0283,-0.258286 -0.02831,-0.09907 -0.08138,-0.152141 -0.04953,-0.05661 -0.123835,-0.07784 -0.07076,-0.02123 -0.15568,-0.02123 -0.07076,0 -0.15214,0.01061 -0.07784,0.0071 -0.152141,0.02123 v 1.386959 H 16.55489 Z"
           style="font-family:'Ubuntu Mono';-inkscape-font-specification:'Ubuntu Mono';fill:url(#radialGradient59838);fill-opacity:1"
           id="path59415" />
        <path
           d="m 19.296955,19.823964 q -0.04953,0.0283 -0.152141,0.06015 -0.102607,0.03184 -0.237057,0.03184 -0.145064,0 -0.272438,-0.046 -0.123836,-0.04953 -0.219366,-0.145065 -0.09199,-0.09907 -0.148603,-0.247671 -0.05307,-0.152141 -0.05307,-0.357354 0,-0.180446 0.04953,-0.329049 0.05307,-0.152141 0.148603,-0.261824 0.09907,-0.109683 0.240595,-0.169831 0.141526,-0.06369 0.321972,-0.06369 0.21229,0 0.360893,0.03184 0.152141,0.0283 0.254747,0.05661 v 1.464798 q 0,0.382121 -0.194599,0.551953 -0.19106,0.169832 -0.580258,0.169832 -0.159217,0 -0.290129,-0.02477 -0.127374,-0.02477 -0.226442,-0.06015 l 0.05307,-0.258286 q 0.09199,0.03892 0.208752,0.06369 0.120297,0.02477 0.261823,0.02477 0.254748,0 0.364431,-0.102607 0.109683,-0.102606 0.109683,-0.332587 z m 0,-1.23128 q -0.04246,-0.01415 -0.116759,-0.02477 -0.0743,-0.01415 -0.201675,-0.01415 -0.226443,0 -0.34674,0.155679 -0.116759,0.155679 -0.116759,0.413965 0,0.141527 0.03184,0.244133 0.03538,0.09907 0.09199,0.166294 0.06015,0.06369 0.13445,0.09553 0.0743,0.0283 0.159217,0.0283 0.109683,0 0.205214,-0.03184 0.09907,-0.03184 0.159217,-0.0743 z"
           style="font-family:'Ubuntu Mono';-inkscape-font-specification:'Ubuntu Mono';fill:url(#radialGradient59840);fill-opacity:1"
           id="path59417" />
      </g>
    </g>
  </g>
</svg>
