<?xml version="1.0" standalone="no"?>
<!DOCTYPE svg PUBLIC "-//W3C//DTD SVG 20010904//EN"
 "http://www.w3.org/TR/2001/REC-SVG-20010904/DTD/svg10.dtd">
<svg version="1.0" xmlns="http://www.w3.org/2000/svg"
 width="700.000000pt" height="700.000000pt" viewBox="0 0 700.000000 700.000000"
 preserveAspectRatio="xMidYMid meet">
<metadata>
Created by potrace 1.14, written by Peter Selinger 2001-2017
</metadata>
<g transform="translate(0.000000,700.000000) scale(0.100000,-0.100000)"
fill="#000000" stroke="none">
<path d="M2486 6744 c-81 -20 -171 -70 -231 -129 -49 -48 -165 -207 -165 -226
0 -4 -86 -133 -191 -286 -105 -153 -194 -284 -196 -290 -3 -8 3 -13 14 -13 11
0 98 -20 194 -44 1276 -324 2783 -1184 3852 -2198 244 -232 563 -587 553 -615
-13 -32 10 -2 121 160 66 94 148 213 183 262 35 50 78 122 96 160 93 195 49
430 -108 581 -58 56 -3695 2559 -3778 2600 -110 54 -224 67 -344 38z"/>
<path d="M975 4778 c-296 -430 -548 -802 -561 -828 -97 -194 -61 -430 91 -587
46 -47 479 -350 1872 -1307 996 -685 1813 -1246 1815 -1246 3 0 3 13 0 30 -7
49 32 115 83 140 40 19 58 21 174 18 71 -2 132 -6 136 -9 3 -4 3 -24 -1 -46
l-6 -40 -50 14 c-69 21 -189 14 -217 -11 -26 -24 -27 -60 -2 -85 10 -10 51
-31 92 -46 41 -15 95 -39 121 -51 43 -22 52 -23 100 -13 85 18 173 65 243 131
36 33 65 64 65 69 0 5 -36 9 -80 9 l-80 0 0 38 0 37 127 -3 c77 -1 123 1 115
6 -11 7 106 184 487 738 472 687 500 729 484 745 -10 9 -421 292 -913 629
-888 609 -1630 1119 -2890 1989 -360 249 -657 454 -661 456 -3 3 -248 -347
-544 -777z m485 -431 c157 -106 1333 -911 1830 -1254 239 -165 435 -306 434
-314 -1 -10 -149 -231 -179 -266 -3 -5 -1700 1164 -1763 1215 -129 103 -355
445 -436 660 -19 51 -28 54 114 -41z m3005 -1693 c92 -23 163 -63 231 -129
125 -122 179 -302 140 -468 -7 -32 -16 -60 -19 -63 -8 -8 -293 52 -423 90
-147 43 -327 105 -449 156 -104 44 -104 44 -54 148 102 210 349 325 574 266z"/>
<path d="M3018 1263 l-28 -4 0 -120 0 -119 45 0 45 0 0 125 c0 137 5 128 -62
118z"/>
<path d="M625 1181 l-40 -6 -3 -107 -3 -108 46 0 45 0 0 75 0 75 89 0 c112 0
148 -20 170 -93 13 -41 18 -47 35 -43 12 3 31 6 44 6 29 0 29 23 -3 87 -28 56
-77 95 -140 112 -42 11 -172 12 -240 2z"/>
<path d="M5480 999 c-36 -6 -69 -14 -73 -18 -4 -4 70 -11 164 -15 95 -3 174
-4 177 -1 3 2 -12 12 -34 21 -48 21 -148 26 -234 13z"/>
<path d="M6125 995 c-22 -9 -51 -24 -64 -34 -23 -18 -22 -18 110 -25 74 -4
160 -9 192 -13 l57 -6 0 31 c0 27 -5 32 -37 42 -66 19 -213 22 -258 5z"/>
<path d="M1180 990 c0 -11 21 -11 65 0 27 7 25 8 -17 9 -27 0 -48 -3 -48 -9z"/>
<path d="M580 526 l0 -76 45 0 45 0 0 70 0 70 -29 0 c-16 0 -36 3 -45 6 -14 5
-16 -5 -16 -70z"/>
<path d="M1200 549 c0 -23 43 -70 83 -90 46 -24 170 -28 264 -9 53 11 53 11
53 50 0 38 0 38 -45 42 -29 2 -45 -1 -45 -8 0 -16 -105 -26 -150 -14 -21 6
-43 17 -50 25 -15 18 -110 21 -110 4z"/>
<path d="M6200 550 c-63 -4 -128 -8 -144 -9 -25 -1 -27 -3 -15 -18 41 -49 165
-68 249 -38 l43 15 -6 -50 c-12 -100 -49 -126 -177 -124 -47 1 -98 6 -113 13
-30 12 -30 12 -41 -41 -6 -25 -3 -28 36 -38 23 -7 75 -12 117 -13 190 -3 271
72 271 252 l0 61 -52 -2 c-29 -1 -105 -5 -168 -8z"/>
<path d="M1830 490 l0 -40 40 0 40 0 0 40 0 40 -40 0 -40 0 0 -40z"/>
<path d="M5730 490 l0 -40 45 0 45 0 0 40 0 40 -45 0 -45 0 0 -40z"/>
<path d="M2457 493 c46 -37 120 -57 208 -57 104 1 165 18 165 45 0 11 -6 21
-12 24 -7 2 -97 5 -201 7 l-187 4 27 -23z"/>
<path d="M5400 485 c0 -35 0 -35 45 -35 45 0 45 0 45 35 0 35 0 35 -45 35 -45
0 -45 0 -45 -35z"/>
<path d="M2990 480 c0 -29 2 -30 45 -30 41 0 45 2 45 24 0 24 -21 36 -67 36
-19 0 -23 -6 -23 -30z"/>
<path d="M4972 491 c28 -46 111 -68 191 -51 68 14 81 22 72 49 -6 20 -12 21
-141 21 -129 0 -134 -1 -122 -19z"/>
<path d="M3320 475 c0 -23 4 -25 45 -25 41 0 45 2 45 25 0 23 -4 25 -45 25
-41 0 -45 -2 -45 -25z"/>
<path d="M3630 480 c51 -41 165 -54 313 -36 62 7 67 9 67 32 l0 24 -202 0
-203 0 25 -20z"/>
<path d="M4192 483 c5 -25 80 -45 178 -46 93 -1 161 14 200 43 25 19 24 20
-178 20 -187 0 -203 -1 -200 -17z"/>
</g>
</svg>
